<?xml version="1.0" encoding="UTF-8" standalone="no"?>
<!-- Uploaded to: SVG Repo, www.svgrepo.com, Generator: SVG Repo Mixer Tools -->

<svg
   width="800px"
   height="800px"
   viewBox="0 0 25 25"
   version="1.1"
   id="svg8"
   sodipodi:docname="calendar.svg"
   inkscape:version="1.3.2 (091e20e, 2023-11-25)"
   xmlns:inkscape="http://www.inkscape.org/namespaces/inkscape"
   xmlns:sodipodi="http://sodipodi.sourceforge.net/DTD/sodipodi-0.dtd"
   xmlns="http://www.w3.org/2000/svg"
   xmlns:svg="http://www.w3.org/2000/svg">
  <sodipodi:namedview
     id="namedview8"
     pagecolor="#ffffff"
     bordercolor="#000000"
     borderopacity="0.25"
     inkscape:showpageshadow="2"
     inkscape:pageopacity="0.0"
     inkscape:pagecheckerboard="0"
     inkscape:deskcolor="#d1d1d1"
     inkscape:zoom="0.295"
     inkscape:cx="364.40678"
     inkscape:cy="320.33898"
     inkscape:window-width="1512"
     inkscape:window-height="866"
     inkscape:window-x="0"
     inkscape:window-y="38"
     inkscape:window-maximized="0"
     inkscape:current-layer="calendar_date" />
  <defs
     id="defs1">
    <style
       id="style1">.cls-1{fill:#ff7900;}</style>
  </defs>
  <g
     data-name="calendar date"
     id="calendar_date">
    <path
       class="cls-1"
       d="M22.5,3H21V2a1,1,0,0,0-1-1H19a1,1,0,0,0-1,1V3H14V2a1,1,0,0,0-1-1H12a1,1,0,0,0-1,1V3H7V2A1,1,0,0,0,6,1H5A1,1,0,0,0,4,2V3H2.5A1.5,1.5,0,0,0,1,4.5v18A1.5,1.5,0,0,0,2.5,24h20A1.5,1.5,0,0,0,24,22.5V4.5A1.5,1.5,0,0,0,22.5,3ZM19,2l1,0,0,3L19,5ZM12,2l1,0V3.44s0,0,0,.06,0,0,0,.07L13,5,12,5ZM5,2,6,2,6,5,5,5ZM2.5,4H4V5A1,1,0,0,0,5,6H6A1,1,0,0,0,7,5V4h4V5a1,1,0,0,0,1,1H13a1,1,0,0,0,1-1V4h4V5a1,1,0,0,0,1,1H20a1,1,0,0,0,1-1V4h1.5a.5.5,0,0,1,.5.5V8H2V4.5A.5.5,0,0,1,2.5,4Zm20,19H2.5a.5.5,0,0,1-.5-.5V9H23V22.5A.5.5,0,0,1,22.5,23Z"
       id="path1"
       style="fill:#ffffff;fill-opacity:1" />
    <path
       class="cls-1"
       d="M20.5,15h-6a.5.5,0,0,0-.5.5v5a.5.5,0,0,0,.5.5h6a.5.5,0,0,0,.5-.5v-5A.5.5,0,0,0,20.5,15ZM20,20H15V16h5Z"
       id="path2"
       style="fill:#ffffff;fill-opacity:1" />
    <path
       class="cls-1"
       d="M6.5,11h-2a.5.5,0,0,0-.5.5v2a.5.5,0,0,0,.5.5h2a.5.5,0,0,0,.5-.5v-2A.5.5,0,0,0,6.5,11ZM6,13H5V12H6Z"
       id="path3"
       style="fill:#ffffff;fill-opacity:1" />
    <path
       class="cls-1"
       d="M10.5,11h-2a.5.5,0,0,0-.5.5v2a.5.5,0,0,0,.5.5h2a.5.5,0,0,0,.5-.5v-2A.5.5,0,0,0,10.5,11ZM10,13H9V12h1Z"
       id="path4"
       style="fill:#ffffff;fill-opacity:1" />
    <path
       class="cls-1"
       d="M6.5,16h-2a.5.5,0,0,0-.5.5v2a.5.5,0,0,0,.5.5h2a.5.5,0,0,0,.5-.5v-2A.5.5,0,0,0,6.5,16ZM6,18H5V17H6Z"
       id="path5"
       style="fill:#ffffff;fill-opacity:1" />
    <path
       class="cls-1"
       d="M10.5,16h-2a.5.5,0,0,0-.5.5v2a.5.5,0,0,0,.5.5h2a.5.5,0,0,0,.5-.5v-2A.5.5,0,0,0,10.5,16ZM10,18H9V17h1Z"
       id="path6"
       style="fill:#ffffff;fill-opacity:1" />
    <path
       class="cls-1"
       d="M14.5,14h2a.5.5,0,0,0,.5-.5v-2a.5.5,0,0,0-.5-.5h-2a.5.5,0,0,0-.5.5v2A.5.5,0,0,0,14.5,14Zm.5-2h1v1H15Z"
       id="path7"
       style="fill:#ffffff;fill-opacity:1" />
    <path
       class="cls-1"
       d="M20.5,11h-2a.5.5,0,0,0-.5.5v2a.5.5,0,0,0,.5.5h2a.5.5,0,0,0,.5-.5v-2A.5.5,0,0,0,20.5,11ZM20,13H19V12h1Z"
       id="path8"
       style="fill:#ffffff;fill-opacity:1" />
  </g>
</svg>
