<?xml version="1.0" encoding="UTF-8" standalone="no"?>
<!-- Uploaded to: SVG Repo, www.svgrepo.com, Generator: SVG Repo Mixer Tools -->

<svg
   height="950"
   width="900"
   version="1.1"
   id="Layer_1"
   viewBox="0 0 576 608"
   xml:space="preserve"
   sodipodi:docname="checkin.svg"
   inkscape:version="1.3.2 (091e20e, 2023-11-25)"
   xmlns:inkscape="http://www.inkscape.org/namespaces/inkscape"
   xmlns:sodipodi="http://sodipodi.sourceforge.net/DTD/sodipodi-0.dtd"
   xmlns="http://www.w3.org/2000/svg"
   xmlns:svg="http://www.w3.org/2000/svg"><defs
   id="defs6" /><sodipodi:namedview
   id="namedview6"
   pagecolor="#ffffff"
   bordercolor="#000000"
   borderopacity="0.25"
   inkscape:showpageshadow="2"
   inkscape:pageopacity="0.0"
   inkscape:pagecheckerboard="0"
   inkscape:deskcolor="#d1d1d1"
   showguides="false"
   inkscape:zoom="0.295"
   inkscape:cx="398.30508"
   inkscape:cy="400"
   inkscape:window-width="1392"
   inkscape:window-height="665"
   inkscape:window-x="0"
   inkscape:window-y="38"
   inkscape:window-maximized="0"
   inkscape:current-layer="Layer_1" />
<path
   style="fill:#ffffff;fill-opacity:1"
   d="m 501.74395,204.32647 v 116.364 l -46.545,23.273 v 139.636 c 0,12.858 -10.415,23.273 -23.273,23.273 h -46.545 c -12.858,0 -23.273,-10.415 -23.273,-23.273 v -139.636 l -46.545,-23.273 v -116.364 c 0,-18.851 12.102,-38.167 34.909,-46.545 11.055,-3.956 23.273,-11.636 23.273,-11.636 19.316,15.476 50.502,15.476 69.818,0 0,0 23.855,7.68 34.909,11.636 22.807,8.378 23.272,27.694 23.272,46.545 z"
   id="path1" />
<path
   style="fill:#ffffff;fill-opacity:1;stroke-width:1.45827"
   d="M 14.792169,349.28813 29.275535,226.94442 c 0,0 0.578787,-45.42657 28.967976,-56.44109 13.7602,-5.18863 28.967982,-20.01988 28.967982,-20.01988 24.042687,20.33765 62.859997,20.33765 86.902677,0 0,0 15.20779,14.83125 28.96798,20.03867 28.38794,11.01452 28.96798,56.4411 28.96798,56.4411 l 14.48336,122.32491"
   id="path2" />
<g
   id="g5">
	<path
   style="fill:#000000;fill-opacity:0"
   d="m 469.376,140.323 c -11.171,-4.003 -35.258,-11.764 -35.258,-11.764 -3.735,-1.21 -7.808,-0.454 -10.845,2.001 -14.976,11.997 -40.297,11.997 -55.273,0 -3.875,-3.107 -9.286,-3.398 -13.463,-0.768 -3.107,1.955 -12.905,7.633 -21.085,10.566 -25.844,9.484 -42.543,32.035 -42.543,57.46 v 46.545 h -36.643 c -2.1532,6.21615 -2.37343,56.89045 -9.926,-61.079 -0.535,-13.265 -7.715,-36.329 -31.791,-43.136 -7.377,-2.036 -16.675,-7.913 -19.642,-9.996 -3.793,-2.7 -8.855,-2.863 -12.835,-0.419 -15.616,9.635 -41.996,9.635 -57.612,0 -3.98,-2.444 -9.03,-2.281 -12.835,0.419 -2.967,2.095 -12.265,7.971 -19.7,10.019 -24.017,6.784 -31.197,29.847 -31.732,43.113 l -9.914,61.079 H 23.273 c -6.435,0 -11.636,5.201 -11.636,11.636 0,6.435 5.201,11.636 11.636,11.636 h 267.636 v 46.545 c 0,4.41 2.49,8.436 6.435,10.415 l 40.111,20.049 v 132.445 c 0,19.247 15.663,34.909 34.909,34.909 h 46.545 c 19.247,0 34.909,-15.663 34.909,-34.909 V 344.646 l 40.111,-20.061 c 3.945,-1.967 6.435,-5.993 6.435,-10.403 V 197.818 c 0,-18.362 0,-46.126 -30.988,-57.495 z m -388.073,45.94 c 0.093,-0.547 0.14,-1.105 0.151,-1.664 0,-0.186 0.477,-18.001 14.732,-22.028 7.75,-2.141 15.558,-6.307 20.771,-9.46 20.527,9.414 48.116,9.414 68.631,0 5.213,3.153 12.998,7.331 20.701,9.449 14.045,3.98 14.778,21.388 14.79,22.051 0.012,0.559 0.058,1.117 0.151,1.664 l 9.449,58.089 h -21.225 v -23.273 c 0,-6.435 -5.201,-11.636 -11.636,-11.636 -6.435,0 -11.636,5.201 -11.636,11.636 v 23.273 h -69.818 v -23.273 c 0,-6.435 -5.201,-11.636 -11.636,-11.636 -6.435,0 -11.636,5.201 -11.636,11.636 v 23.273 H 71.866 Z m 395.788,120.728 -23.273,11.636 v -74.263 c 0,-6.435 -5.201,-11.636 -11.636,-11.636 -6.435,0 -11.636,5.201 -11.636,11.636 v 93.091 139.636 c 0,6.423 -5.213,11.636 -11.636,11.636 H 407.274 V 337.455 c 0,-6.435 -5.201,-11.636 -11.636,-11.636 -6.435,0 -11.636,5.201 -11.636,11.636 v 151.273 h -11.636 c -6.423,0 -11.636,-5.213 -11.636,-11.636 V 337.455 244.364 c 0,-6.435 -5.201,-11.636 -11.636,-11.636 -6.435,0 -11.636,5.201 -11.636,11.636 v 74.263 L 314.185,306.991 V 197.818 c 0,-15.558 10.705,-29.533 27.194,-35.596 6.807,-2.432 13.859,-6.063 18.839,-8.809 21.644,12.975 51.025,12.672 72.308,-0.908 7.657,2.49 21.376,6.993 28.916,9.681 14.173,5.213 15.651,14.86 15.651,35.631 v 109.174 z"
   id="path3"
   sodipodi:nodetypes="ccccccscccccccccccssscsccssssccsscccccccccccsssccssscccccssscsscssscsscsssccsccccscc" />
	
	
</g>
<g
   id="g6"
   transform="matrix(1.245033,0,0,1.3061225,-80.199349,-37.324109)">
	
	
<path
   style="fill:#ffffff;stroke-width:1.8045"
   id="path6"
   sodipodi:type="arc"
   sodipodi:cx="394.84747"
   sodipodi:cy="83.525421"
   sodipodi:rx="56.406776"
   sodipodi:ry="46.644066"
   sodipodi:start="0"
   sodipodi:end="6.2246508"
   sodipodi:open="true"
   sodipodi:arc-type="arc"
   d="M 451.25425,83.525421 A 56.406776,46.644066 0 0 1 395.67288,130.16449 56.406776,46.644066 0 0 1 338.46485,84.89037 56.406776,46.644066 0 0 1 392.37196,36.926296 56.406776,46.644066 0 0 1 451.15764,80.796693" /><path
   style="fill:#ffffff;stroke-width:1.8045"
   id="path4"
   sodipodi:type="arc"
   sodipodi:cx="171.38983"
   sodipodi:cy="96.542374"
   sodipodi:rx="47.728813"
   sodipodi:ry="46.644066"
   sodipodi:start="0"
   sodipodi:end="6.2246508"
   sodipodi:open="true"
   sodipodi:arc-type="arc"
   d="M 219.11864,96.542374 A 47.728813,46.644066 0 0 1 172.08825,143.18145 47.728813,46.644066 0 0 1 123.68146,97.907322 47.728813,46.644066 0 0 1 169.29517,49.943249 47.728813,46.644066 0 0 1 219.0369,93.813645" /></g>
</svg>
