<?xml version="1.0" encoding="UTF-8" standalone="no"?>
<!-- Uploaded to: SVG Repo, www.svgrepo.com, Generator: SVG Repo Mixer Tools -->

<svg
   width="800px"
   height="800px"
   viewBox="0 0 24 24"
   fill="none"
   version="1.1"
   id="svg1"
   sodipodi:docname="checkout.svg"
   inkscape:version="1.3.2 (091e20e, 2023-11-25)"
   xmlns:inkscape="http://www.inkscape.org/namespaces/inkscape"
   xmlns:sodipodi="http://sodipodi.sourceforge.net/DTD/sodipodi-0.dtd"
   xmlns="http://www.w3.org/2000/svg"
   xmlns:svg="http://www.w3.org/2000/svg">
  <defs
     id="defs1" />
  <sodipodi:namedview
     id="namedview1"
     pagecolor="#ffffff"
     bordercolor="#000000"
     borderopacity="0.25"
     inkscape:showpageshadow="2"
     inkscape:pageopacity="0.0"
     inkscape:pagecheckerboard="0"
     inkscape:deskcolor="#d1d1d1"
     inkscape:zoom="0.295"
     inkscape:cx="398.30508"
     inkscape:cy="400"
     inkscape:window-width="1312"
     inkscape:window-height="449"
     inkscape:window-x="0"
     inkscape:window-y="38"
     inkscape:window-maximized="0"
     inkscape:current-layer="svg1" />
  <path
     d="M 16,8 V 5.2 C 16,4.0799 16,3.51984 15.782,3.09202 15.5903,2.71569 15.2843,2.40973 14.908,2.21799 14.4802,2 13.9201,2 12.8,2 H 5.2 C 4.0799,2 3.51984,2 3.09202,2.21799 2.71569,2.40973 2.40973,2.71569 2.21799,3.09202 2,3.51984 2,4.0799 2,5.2 V 9.559322 12.8 c 0,1.1201 0,1.6802 0.21799,2.108 0.19174,0.3763 0.4977,0.6823 0.87403,0.874 C 3.51984,16 4.0799,16 5.2,16 H 8 m 4,-1 2,2 4.5,-4.5 M 11.2,22 h 7.6 c 1.1201,0 1.6802,0 2.108,-0.218 0.3763,-0.1917 0.6823,-0.4977 0.874,-0.874 C 22,20.4802 22,19.9201 22,18.8 V 11.2 C 22,10.0799 22,9.51984 21.782,9.09202 21.5903,8.71569 21.2843,8.40973 20.908,8.21799 20.4802,8 19.9201,8 18.8,8 H 13.627119 11.2 C 10.0799,8 9.51984,8 9.09202,8.21799 8.71569,8.40973 8.40973,8.71569 8.21799,9.09202 8,9.51984 8,10.0799 8,11.2 v 7.6 c 0,1.1201 0,1.6802 0.21799,2.108 0.19174,0.3763 0.4977,0.6823 0.87403,0.874 C 9.51984,22 10.0799,22 11.2,22 Z"
     stroke="#000000"
     stroke-width="2"
     stroke-linecap="round"
     stroke-linejoin="round"
     id="path1"
     sodipodi:nodetypes="csccssccscsccsccccssccssccscsccssccs"
     style="stroke:#ffffff;stroke-opacity:1" />
</svg>
